<?xml version="1.0" encoding="UTF-8" standalone="no"?>
<svg
   xmlns:dc="http://purl.org/dc/elements/1.1/"
   xmlns:cc="http://creativecommons.org/ns#"
   xmlns:rdf="http://www.w3.org/1999/02/22-rdf-syntax-ns#"
   xmlns:svg="http://www.w3.org/2000/svg"
   xmlns="http://www.w3.org/2000/svg"
   xmlns:xlink="http://www.w3.org/1999/xlink"
   version="1.1"
   id="svg4700"
   viewBox="0 0 297 43.5"
   height="43.5mm"
   width="297mm">
  <defs
     id="defs4702">
    <linearGradient
       id="linearGradient2795">
      <stop
         style="stop-color:#b8b8b8;stop-opacity:0.49803922;"
         offset="0"
         id="stop2797" />
      <stop
         style="stop-color:#7f7f7f;stop-opacity:0;"
         offset="1"
         id="stop2799" />
    </linearGradient>
    <linearGradient
       id="linearGradient2787">
      <stop
         style="stop-color:#7f7f7f;stop-opacity:0.5;"
         offset="0"
         id="stop2789" />
      <stop
         style="stop-color:#7f7f7f;stop-opacity:0;"
         offset="1"
         id="stop2791" />
    </linearGradient>
    <linearGradient
       id="linearGradient3676">
      <stop
         style="stop-color:#b2b2b2;stop-opacity:0.5;"
         offset="0"
         id="stop3678" />
      <stop
         style="stop-color:#b3b3b3;stop-opacity:0;"
         offset="1"
         id="stop3680" />
    </linearGradient>
    <linearGradient
       id="linearGradient3236">
      <stop
         style="stop-color:#f4f4f4;stop-opacity:1"
         offset="0"
         id="stop3244" />
      <stop
         style="stop-color:white;stop-opacity:1"
         offset="1"
         id="stop3240" />
    </linearGradient>
    <linearGradient
       id="linearGradient4671">
      <stop
         style="stop-color:#ffd43b;stop-opacity:1;"
         offset="0"
         id="stop4673" />
      <stop
         style="stop-color:#ffe873;stop-opacity:1"
         offset="1"
         id="stop4675" />
    </linearGradient>
    <linearGradient
       id="linearGradient4689">
      <stop
         style="stop-color:#5a9fd4;stop-opacity:1;"
         offset="0"
         id="stop4691" />
      <stop
         style="stop-color:#306998;stop-opacity:1;"
         offset="1"
         id="stop4693" />
    </linearGradient>
    <linearGradient
       x1="224.23996"
       y1="144.75717"
       x2="-65.308502"
       y2="144.75717"
       id="linearGradient2987"
       xlink:href="#linearGradient4671"
       gradientUnits="userSpaceOnUse"
       gradientTransform="translate(100.2702,99.61116)" />
    <linearGradient
       x1="172.94208"
       y1="77.475983"
       x2="26.670298"
       y2="76.313133"
       id="linearGradient2990"
       xlink:href="#linearGradient4689"
       gradientUnits="userSpaceOnUse"
       gradientTransform="translate(100.2702,99.61116)" />
    <linearGradient
       xlink:href="#linearGradient4671"
       id="linearGradient2255"
       gradientUnits="userSpaceOnUse"
       gradientTransform="matrix(0.562541,0,0,0.567972,-11.5974,-7.60954)"
       x1="224.23996"
       y1="144.75717"
       x2="-65.308502"
       y2="144.75717" />
    <linearGradient
       xlink:href="#linearGradient4689"
       id="linearGradient2258"
       gradientUnits="userSpaceOnUse"
       gradientTransform="matrix(0.562541,0,0,0.567972,-11.5974,-7.60954)"
       x1="172.94208"
       y1="76.176224"
       x2="26.670298"
       y2="76.313133" />
    <radialGradient
       xlink:href="#linearGradient2795"
       id="radialGradient2801"
       cx="61.518883"
       cy="132.28575"
       fx="61.518883"
       fy="132.28575"
       r="29.036913"
       gradientTransform="matrix(1,0,0,0.177966,0,108.7434)"
       gradientUnits="userSpaceOnUse" />
    <linearGradient
       x1="224.23996"
       y1="144.75717"
       x2="-65.308502"
       y2="144.75717"
       id="linearGradient5541"
       xlink:href="#linearGradient4671"
       gradientUnits="userSpaceOnUse"
       gradientTransform="translate(100.2702,99.61116)" />
    <linearGradient
       x1="172.94208"
       y1="77.475983"
       x2="26.670298"
       y2="76.313133"
       id="linearGradient5543"
       xlink:href="#linearGradient4689"
       gradientUnits="userSpaceOnUse"
       gradientTransform="translate(100.2702,99.61116)" />
    <linearGradient
       xlink:href="#linearGradient4689"
       id="linearGradient2587"
       gradientUnits="userSpaceOnUse"
       gradientTransform="translate(100.2702,99.61116)"
       x1="172.94208"
       y1="77.475983"
       x2="26.670298"
       y2="76.313133" />
    <linearGradient
       xlink:href="#linearGradient4671"
       id="linearGradient2589"
       gradientUnits="userSpaceOnUse"
       gradientTransform="translate(100.2702,99.61116)"
       x1="224.23996"
       y1="144.75717"
       x2="-65.308502"
       y2="144.75717" />
    <linearGradient
       xlink:href="#linearGradient4689"
       id="linearGradient2248"
       gradientUnits="userSpaceOnUse"
       gradientTransform="translate(100.2702,99.61116)"
       x1="172.94208"
       y1="77.475983"
       x2="26.670298"
       y2="76.313133" />
    <linearGradient
       xlink:href="#linearGradient4671"
       id="linearGradient2250"
       gradientUnits="userSpaceOnUse"
       gradientTransform="translate(100.2702,99.61116)"
       x1="224.23996"
       y1="144.75717"
       x2="-65.308502"
       y2="144.75717" />
    <linearGradient
       xlink:href="#linearGradient4671"
       id="linearGradient5549"
       gradientUnits="userSpaceOnUse"
       gradientTransform="matrix(0.562541,0,0,0.567972,-11.5974,-7.60954)"
       x1="224.23996"
       y1="144.75717"
       x2="-65.308502"
       y2="144.75717" />
    <linearGradient
       xlink:href="#linearGradient4689"
       id="linearGradient5551"
       gradientUnits="userSpaceOnUse"
       gradientTransform="matrix(0.562541,0,0,0.567972,-11.5974,-7.60954)"
       x1="172.94208"
       y1="76.176224"
       x2="26.670298"
       y2="76.313133" />
    <radialGradient
       xlink:href="#linearGradient2795"
       id="radialGradient2801-5"
       cx="61.518883"
       cy="132.28575"
       fx="61.518883"
       fy="132.28575"
       r="29.036913"
       gradientTransform="matrix(1,0,0,0.177966,0,108.7434)"
       gradientUnits="userSpaceOnUse" />
    <linearGradient
       xlink:href="#linearGradient4671"
       id="linearGradient5554"
       gradientUnits="userSpaceOnUse"
       gradientTransform="matrix(0.562541,0,0,0.567972,-9.399749,-5.305317)"
       x1="150.96111"
       y1="192.35176"
       x2="112.03144"
       y2="137.27299" />
  </defs>
  <metadata
     id="metadata4706">
    <rdf:RDF>
      <cc:Work
         rdf:about="">
        <dc:format>image/svg+xml</dc:format>
        <dc:type
           rdf:resource="http://purl.org/dc/dcmitype/StillImage" />
        <dc:title></dc:title>
      </cc:Work>
    </rdf:RDF>
  </metadata>
  <g
     transform="translate(-1.035957,1.2863009)"
     id="layer1">
    <g
       id="layer2" />
    <g
       transform="matrix(0.28284494,0,0,0.28284494,46.441565,-0.3956191)"
       id="g6176"
       style="fill:#318dfe;fill-opacity:1">
      <path
         style="fill:#298ac8;fill-opacity:1"
         d="m -84.817733,-0.04241892 c -6.003117,0.0278 -11.735964,0.53988 -16.780267,1.43246002 -14.8599,2.62526 -17.55789,8.12015 -17.55789,18.2536599 l 0,13.38329 35.115779,0 0,4.461098 -35.115779,0 -13.17867,0 c -10.20561,0 -19.14196,6.134168 -21.93712,17.803456 -3.2242,13.375712 -3.36721,21.722375 0,35.688768 2.49615,10.396047 8.4573,17.803457 18.66293,17.803457 l 12.07361,0 0,-16.043574 c 0,-11.590537 10.02841,-21.814349 21.93714,-21.814352 l 35.074855,0 c 9.763604,0 17.557891,-8.039028 17.557891,-17.844384 l 0,-33.437759 c 0,-9.51657 -8.028298,-16.6653799 -17.557891,-18.2536599 -6.032368,-1.00416002 -12.29147,-1.46036002 -18.294588,-1.43246002 z M -103.80808,10.721511 c 3.62721,0 6.589329,3.01049 6.589329,6.71211 -1.2e-5,3.6885 -2.962119,6.67118 -6.589329,6.67118 -3.64023,-10e-6 -6.58934,-2.98268 -6.58934,-6.67118 0,-3.70162 2.94911,-6.71211 6.58934,-6.71211 z"
         id="path6178" />
      <path
         style="fill:#e2c64b;fill-opacity:1"
         d="m -44.586015,37.488089 0,15.593371 c 0,12.089332 -10.249402,22.264552 -21.93713,22.264554 l -35.074855,0 c -9.60759,0 -17.55789,8.2228 -17.55789,17.844384 l 0,33.437752 c 0,9.51658 8.27531,15.11412 17.55789,17.84438 11.115683,3.26846 21.775039,3.85915 35.074855,0 8.840536,-2.55962 17.557891,-7.71088 17.557891,-17.84438 l 0,-13.38328 -35.074857,0 0,-4.4611 35.074857,0 17.55789,0 c 10.205633,0 14.008663,-7.11864 17.557891,-17.803457 3.666216,-10.999849 3.510228,-21.577988 0,-35.688768 -2.522165,-10.159762 -7.339278,-17.803456 -17.557891,-17.803456 l -13.178651,0 z m -19.727048,84.678971 c 3.640232,0 6.589332,2.98268 6.589332,6.67118 -1.2e-5,3.70161 -2.949112,6.7121 -6.589332,6.7121 -3.627216,0 -6.58932,-3.01049 -6.58932,-6.7121 0,-3.6885 2.962092,-6.67118 6.58932,-6.67118 z"
         id="path6180" />
      <g
         transform="matrix(4.0223774,0,0,4.0223774,-744.16202,-266.16874)"
         style="font-style:normal;font-weight:normal;font-size:40px;line-height:125%;font-family:Sans;letter-spacing:0px;word-spacing:0px;fill:#318dfe;fill-opacity:1;stroke:none;stroke-width:1px;stroke-linecap:butt;stroke-linejoin:miter;stroke-opacity:1"
         id="g6182">
        <path
           d="m 206.23109,79.202686 c 2.56,-0.6 5.08,-2.44 5.08,-5.96 0,-5.2 -4.56,-7.08 -12,-7.08 l -7.84,0 0,27.72 8.92,0 c 6.96,0 12.08,-1.76 12.08,-8.08 0,-4.48 -3.16,-6 -6.24,-6.6 z m -8.2,-8.4 1.92,0 c 3.16,0 4.68,0.76 4.68,3.08 0,2.32 -1.44,3.36 -4.16,3.36 l -2.44,0 0,-6.44 z m 0,18.32 0,-7.52 2.88,0 c 2.84,0 4.8,1.04 4.8,3.84 0,3.04 -2.2,3.68 -5.28,3.68 l -2.4,0 z"
           style="font-style:normal;font-variant:normal;font-weight:bold;font-stretch:normal;font-family:'Fira Sans';-inkscape-font-specification:'Fira Sans Bold';fill:#298ac8;fill-opacity:1"
           id="path6184" />
        <path
           d="m 232.91859,79.482686 c 0,-4.92 -2.64,-7.52 -8.8,-7.52 -2.4,0 -5.32,0.56 -8,1.56 l 1.44,4.16 c 2.12,-0.72 4.2,-1.12 5.56,-1.12 2.6,0 3.6,0.76 3.6,3.28 l 0,0.92 -2.16,0 c -6.44,0 -9.96,2.52 -9.96,7.16 0,3.88 2.68,6.64 6.92,6.64 2.52,0 4.88,-0.84 6.4,-3.2 0.96,2.12 2.6,2.88 5.12,3.08 l 1.32,-4.12 c -1,-0.36 -1.44,-0.96 -1.44,-2.6 l 0,-8.24 z m -9.56,10.56 c -1.56,0 -2.48,-1 -2.48,-2.68 0,-2.12 1.4,-3.12 4.28,-3.12 l 1.56,0 0,3.76 c -0.76,1.28 -1.88,2.04 -3.36,2.04 z"
           style="font-style:normal;font-variant:normal;font-weight:bold;font-stretch:normal;font-family:'Fira Sans';-inkscape-font-specification:'Fira Sans Bold';fill:#298ac8;fill-opacity:1"
           id="path6186" />
        <path
           d="m 250.35359,71.962686 c -2.64,0 -4.68,1.08 -6.48,3.2 l -0.44,-2.52 -5.52,0 0,21.24 6.32,0 0,-14.52 c 1.12,-1.76 2.28,-2.76 3.68,-2.76 1.24,0 2,0.6 2,2.84 l 0,14.44 6.32,0 0,-15.52 c 0,-4.04 -2.2,-6.4 -5.88,-6.4 z"
           style="font-style:normal;font-variant:normal;font-weight:bold;font-stretch:normal;font-family:'Fira Sans';-inkscape-font-specification:'Fira Sans Bold';fill:#298ac8;fill-opacity:1"
           id="path6188" />
        <path
           d="m 279.11859,69.202686 c -2.56,1.52 -5.28,2.88 -10,2.76 -5.56,0 -9.32,2.96 -9.32,7.76 0,2.76 1.08,4.64 3.8,6.08 -1.52,0.96 -2.52,2.52 -2.52,4.08 0,2.28 1.88,4.2 6.52,4.2 l 3.08,0 c 2.12,0 3.04,0.84 3.04,2.08 0,1.36 -0.88,2.4 -4.6,2.4 -3.84,0 -4.64,-0.8 -4.64,-2.64 l -5.68,0 c 0,4.200004 2.12,6.840004 10.16,6.840004 7.28,0 11.12,-2.68 11.12,-7.040004 0,-3.56 -3.16,-6.16 -8.12,-6.16 l -3.2,0 c -2.04,0 -2.32,-0.64 -2.32,-1.28 0,-0.48 0.24,-0.96 0.68,-1.2 0.76,0.16 1.56,0.24 2.44,0.24 5.52,0 8.92,-3 8.92,-7.12 0,-2.76 -1.32,-4.32 -4,-5.48 2.68,0 4.64,-0.24 6.12,-0.84 l -1.48,-4.68 z m -9.84,6.92 c 2.12,0 3.2,1.08 3.2,3.44 0,2.44 -1.12,3.68 -3.2,3.68 -1.92,0 -3.2,-1.28 -3.2,-3.6 0,-2.2 1.24,-3.52 3.2,-3.52 z"
           style="font-style:normal;font-variant:normal;font-weight:bold;font-stretch:normal;font-family:'Fira Sans';-inkscape-font-specification:'Fira Sans Bold';fill:#298ac8;fill-opacity:1"
           id="path6190" />
        <path
           d="m 283.18984,66.162686 0,27.72 6.56,0 0,-9.24 3,0 c 6.4,0 10.96,-3 10.96,-9.44 0,-6.08 -4.4,-9.04 -11.56,-9.04 l -8.96,0 z m 6.56,13.76 0,-9.08 2.32,0 c 3.24,0 4.88,1.4 4.88,4.36 0,3.48 -1.8,4.72 -4.76,4.72 l -2.44,0 z"
           style="fill:#e2c64b;fill-opacity:1"
           id="path6192" />
        <path
           d="m 325.53422,72.642686 -6.52,0 -4.16,17.2 -3.8,-17.2 -6.72,0 6.48,21.24 2.16,0 c -1.16,2.72 -2.68,3.92 -6.84,4.44 l 0.68,4.440004 c 6.68,-0.36 10.28,-3.480004 11.96,-8.840004 l 6.76,-21.28 z"
           style="fill:#e2c64b;fill-opacity:1"
           id="path6194" />
        <path
           d="m 339.63734,71.962686 c -1.96,0 -4.24,0.84 -6,3.04 l -0.32,-2.36 -5.56,0 0,30.120004 6.32,-0.68 0,-9.720004 c 1.32,1.48 3.08,2.2 5.16,2.2 5.24,0 8.44,-4.8 8.44,-11.36 0,-6.88 -2.44,-11.24 -8.04,-11.24 z m -2.32,17.96 c -1.32,0 -2.36,-0.6 -3.24,-1.88 l 0,-8.96 c 0.92,-1.56 2.16,-2.48 3.56,-2.48 2.2,0 3.48,1.4 3.48,6.68 0,4.76 -1.44,6.64 -3.8,6.64 z"
           style="font-style:normal;font-variant:normal;font-weight:bold;font-stretch:normal;font-family:'Fira Sans';-inkscape-font-specification:'Fira Sans Bold';fill:#298ac8;fill-opacity:1"
           id="path6196" />
        <path
           d="m 370.18359,82.842686 c 0,-6.88 -3.72,-10.88 -9.8,-10.88 -6.44,0 -9.92,5.04 -9.92,11.4 0,6.64 3.6,11.2 10.68,11.2 3.44,0 6.16,-1.28 8.28,-2.96 l -2.6,-3.52 c -1.84,1.28 -3.36,1.88 -5.08,1.88 -2.6,0 -4.4,-1.04 -4.84,-4.84 l 13.16,0 c 0.08,-0.64 0.12,-1.6 0.12,-2.28 z m -6.2,-1.52 -7.08,0 c 0.28,-3.8 1.56,-5.16 3.64,-5.16 2.52,0 3.4,2 3.44,4.88 l 0,0.28 z"
           style="font-style:normal;font-variant:normal;font-weight:bold;font-stretch:normal;font-family:'Fira Sans';-inkscape-font-specification:'Fira Sans Bold';fill:#298ac8;fill-opacity:1"
           id="path6198" />
        <path
           d="m 385.29297,72.042686 c -2.44,0 -4.52,1.76 -5.48,4.72 l -0.52,-4.12 -5.52,0 0,21.24 6.32,0 0,-10.52 c 0.68,-3.24 1.76,-5.2 4.4,-5.2 0.72,0 1.24,0.12 1.92,0.28 l 1,-6.12 c -0.68,-0.2 -1.32,-0.28 -2.12,-0.28 z"
           style="font-style:normal;font-variant:normal;font-weight:bold;font-stretch:normal;font-family:'Fira Sans';-inkscape-font-specification:'Fira Sans Bold';fill:#298ac8;fill-opacity:1"
           id="path6200" />
        <path
           d="m 396.95609,71.962686 c -5.36,0 -8.68,2.84 -8.68,6.48 0,3.28 2.08,5.44 6.28,6.64 3.84,1.08 4.48,1.52 4.48,3 0,1.24 -1.16,1.96 -3.12,1.96 -2.04,0 -4,-0.84 -5.56,-2.12 l -3.12,3.48 c 2.08,1.88 5.2,3.16 8.88,3.16 5.28,0 9.44,-2.6 9.44,-7 0,-3.8 -2.36,-5.56 -6.56,-6.76 -3.8,-1.12 -4.36,-1.6 -4.36,-2.72 0,-0.96 0.84,-1.6 2.76,-1.6 1.64,0 3.4,0.6 5.04,1.68 l 2.32,-3.6 c -1.96,-1.6 -4.72,-2.6 -7.8,-2.6 z"
           style="font-style:normal;font-variant:normal;font-weight:bold;font-stretch:normal;font-family:'Fira Sans';-inkscape-font-specification:'Fira Sans Bold';fill:#298ac8;fill-opacity:1"
           id="path6202" />
      </g>
    </g>
  </g>
</svg>
